<?xml version="1.0" standalone="no"?>
<!DOCTYPE svg PUBLIC "-//W3C//DTD SVG 20010904//EN"
 "http://www.w3.org/TR/2001/REC-SVG-20010904/DTD/svg10.dtd">
<svg version="1.0" xmlns="http://www.w3.org/2000/svg"
 width="329.000000pt" height="329.000000pt" viewBox="0 0 329.000000 329.000000"
 preserveAspectRatio="xMidYMid meet">
<metadata>
Created by potrace 1.11, written by Peter Selinger 2001-2013
</metadata>
<g transform="translate(0.000000,329.000000) scale(0.100000,-0.100000)"
fill="#000000" stroke="none">
<path d="M916 2875 c-236 -195 -436 -361 -444 -368 -12 -12 -11 -20 6 -53 l19
-39 -188 -155 c-104 -85 -197 -161 -206 -167 -15 -11 -10 -25 44 -140 67 -141
95 -220 118 -333 19 -89 37 -120 69 -120 28 0 8 -15 538 412 339 273 408 333
418 363 14 42 17 92 8 125 -7 23 6 36 154 155 88 72 169 141 179 154 14 17 19
40 19 80 0 75 -13 118 -54 175 -50 70 -227 266 -240 265 -6 0 -204 -160 -440
-354z"/>
<path d="M2509 2766 c-14 -7 -103 -75 -198 -151 l-172 -138 -37 36 -37 37
-144 -115 c-136 -109 -158 -125 -148 -107 146 242 177 295 177 307 0 19 -37
38 -53 28 -7 -4 -206 -164 -443 -355 l-429 -346 -65 -100 c-36 -56 -70 -98
-76 -95 -7 2 -207 -152 -446 -344 -501 -404 -479 -377 -377 -453 178 -131 193
-214 80 -450 -41 -86 -43 -155 -5 -200 29 -33 119 -90 144 -89 8 0 168 121
355 268 187 148 341 265 343 261 5 -14 -48 -133 -95 -212 -40 -66 -62 -89
-157 -164 -298 -236 -346 -275 -346 -283 0 -23 14 -41 32 -41 35 0 198 59 278
101 49 25 226 156 491 362 l414 323 243 -106 243 -105 -5 -42 c-3 -24 -9 -63
-12 -88 l-7 -45 84 0 84 1 440 337 440 338 7 49 c4 28 24 173 44 323 l38 273
48 36 c26 21 48 43 48 49 0 22 -105 194 -118 194 -7 0 -35 -11 -63 -25 l-50
-26 -59 27 c-33 15 -60 31 -60 35 0 5 -10 9 -23 9 -22 0 -23 2 -17 51 6 46 5
50 -12 45 -64 -20 -59 -24 -52 38 4 31 3 56 -1 56 -4 0 -19 -8 -33 -19 -15
-10 -46 -30 -69 -45 -40 -24 -43 -25 -43 -7 0 10 19 33 44 52 73 55 81 95 42
190 -12 31 -43 87 -69 125 -49 74 -154 207 -165 211 -4 2 -19 -3 -33 -11z"/>
</g>
</svg>
